<svg width="100" height="100" viewBox="0 0 100 100" fill="none" xmlns="http://www.w3.org/2000/svg">
<rect width="100" height="100" fill="url(#paint0_linear_165_555)"/>
<rect width="100" height="100" fill="black" fill-opacity="0.5"/>
<path d="M45.952 25.36C47.0187 25.36 48.32 26.064 49.856 27.472C51.392 28.88 52.16 30.3307 52.16 31.824C52.16 35.92 50.048 43.856 45.824 55.632C44.3733 59.7707 43.648 62.6507 43.648 64.272C43.648 64.4853 43.6907 64.6133 43.776 64.656C43.8613 64.6987 44.6507 64.72 46.144 64.72C47.6373 64.72 49.6853 64.5067 52.288 64.08C54.9333 63.6107 57.0667 63.1627 58.688 62.736C60.352 62.3093 61.3333 62.096 61.632 62.096C62.6987 62.096 63.232 62.7787 63.232 64.144C63.232 66.832 61.184 69.008 57.088 70.672C53.0347 72.2933 48.32 73.104 42.944 73.104C40.8533 73.104 38.9333 72.336 37.184 70.8C35.4773 69.2213 34.624 67.4933 34.624 65.616C34.624 63.7387 36.2027 57.68 39.36 47.44C42.5173 37.1573 44.096 30.5013 44.096 27.472C44.096 26.064 44.7147 25.36 45.952 25.36Z" fill="white"/>
<defs>
<linearGradient id="paint0_linear_165_555" x1="-2.13389" y1="-63.0906" x2="152.639" y2="111.858" gradientUnits="userSpaceOnUse">
<stop stop-color="#FF5F1E"/>
<stop offset="0.742285" stop-color="#1C7AE7"/>
</linearGradient>
</defs>
</svg>
