<svg xmlns="http://www.w3.org/2000/svg"
  xmlns:xlink="http://www.w3.org/1999/xlink" viewBox="0 0 1920 1920" width="1920" height="1920" preserveAspectRatio="xMidYMid meet" style="width: 100%; height: 100%; transform: translate3d(0px, 0px, 0px); content-visibility: visible;">
  <defs>
    <clipPath id="__lottie_element_2">
      <rect width="1920" height="1920" x="0" y="0"></rect>
    </clipPath>
  </defs>
  <g clip-path="url(#__lottie_element_2)">
    <g transform="matrix(13.119994163513184,-0.01184545736759901,0.01184545736759901,13.119994163513184,-1031.57568359375,1096.5531005859375)" opacity="1" style="display: block;">
      <g opacity="1" transform="matrix(1,0,0,1,0,0)">
        <path fill="rgba(123, 181, 251, 1)" fill-opacity="1" d=" M165.72000122070312,28.378000259399414 C165.72000122070312,28.378000259399414 167.36300659179688,31.70800018310547 167.36300659179688,31.70800018310547 C167.36300659179688,31.70800018310547 171.03799438476562,32.242000579833984 171.03799438476562,32.242000579833984 C171.03799438476562,32.242000579833984 168.37899780273438,34.83399963378906 168.37899780273438,34.83399963378906 C168.37899780273438,34.83399963378906 169.0070037841797,38.49300003051758 169.0070037841797,38.49300003051758 C169.0070037841797,38.49300003051758 165.72000122070312,36.76499938964844 165.72000122070312,36.76499938964844 C165.72000122070312,36.76499938964844 162.4340057373047,38.49300003051758 162.4340057373047,38.49300003051758 C162.4340057373047,38.49300003051758 163.06100463867188,34.83399963378906 163.06100463867188,34.83399963378906 C163.06100463867188,34.83399963378906 160.40199279785156,32.242000579833984 160.40199279785156,32.242000579833984 C160.40199279785156,32.242000579833984 164.07699584960938,31.70800018310547 164.07699584960938,31.70800018310547 C164.07699584960938,31.70800018310547 165.72000122070312,28.378000259399414 165.72000122070312,28.378000259399414z"></path>
      </g>
    </g>
    <g transform="matrix(13.119994163513184,-0.01184545736759901,0.01184545736759901,13.119994163513184,-1028.6807861328125,1107.7628173828125)" opacity="1" style="display: block;">
      <g opacity="1" transform="matrix(1,0,0,1,0,0)">
        <path fill="rgba(43, 114, 246, 1)" fill-opacity="1" d=" M184.14100646972656,-61.013999938964844 C184.14100646972656,-61.013999938964844 187.0850067138672,-55.04899978637695 187.0850067138672,-55.04899978637695 C187.0850067138672,-55.04899978637695 193.66799926757812,-54.09199905395508 193.66799926757812,-54.09199905395508 C193.66799926757812,-54.09199905395508 188.90499877929688,-49.44900131225586 188.90499877929688,-49.44900131225586 C188.90499877929688,-49.44900131225586 190.0290069580078,-42.893001556396484 190.0290069580078,-42.893001556396484 C190.0290069580078,-42.893001556396484 184.14100646972656,-45.987998962402344 184.14100646972656,-45.987998962402344 C184.14100646972656,-45.987998962402344 178.25399780273438,-42.893001556396484 178.25399780273438,-42.893001556396484 C178.25399780273438,-42.893001556396484 179.3780059814453,-49.44900131225586 179.3780059814453,-49.44900131225586 C179.3780059814453,-49.44900131225586 174.61500549316406,-54.09199905395508 174.61500549316406,-54.09199905395508 C174.61500549316406,-54.09199905395508 181.197998046875,-55.04899978637695 181.197998046875,-55.04899978637695 C181.197998046875,-55.04899978637695 184.14100646972656,-61.013999938964844 184.14100646972656,-61.013999938964844z"></path>
      </g>
    </g>
    <g transform="matrix(13.119994163513184,-0.01184545736759901,0.01184545736759901,13.119994163513184,-1026.6810302734375,1106.02490234375)" opacity="1" style="display: block;">
      <g opacity="1" transform="matrix(1,0,0,1,0,0)">
        <path fill="rgba(189, 215, 254, 1)" fill-opacity="1" d=" M119.68399810791016,-19.381000518798828 C124.55699920654297,-36.845001220703125 142.66400146484375,-47.05099868774414 160.1280059814453,-42.178001403808594 C177.5919952392578,-37.30500030517578 187.79800415039062,-19.198999404907227 182.9250030517578,-1.7350000143051147 C178.052001953125,15.729000091552734 159.94500732421875,25.93600082397461 142.4810028076172,21.062999725341797 C125.01699829101562,16.190000534057617 114.81099700927734,-1.9170000553131104 119.68399810791016,-19.381000518798828z"></path>
      </g>
      <g opacity="1" transform="matrix(1,0,0,1,0,0)" style="mix-blend-mode: multiply;">
        <path fill="rgba(123, 170, 251, 1)" fill-opacity="0.67" d=" M142.4810028076172,21.062999725341797 C154.0780029296875,24.298999786376953 165.9530029296875,20.878999710083008 174.0540008544922,13.107000350952148 C168.5679931640625,14.57699966430664 162.6300048828125,14.649999618530273 156.76300048828125,13.012999534606934 C139.2989959716797,8.140000343322754 129.0919952392578,-9.967000007629395 133.96499633789062,-27.430999755859375 C135.6020050048828,-33.29800033569336 138.73899841308594,-38.340999603271484 142.83700561523438,-42.27299880981445 C131.9929962158203,-39.367000579833984 122.91999816894531,-30.976999282836914 119.68399810791016,-19.381000518798828 C114.81099700927734,-1.9170000553131104 125.01699829101562,16.190000534057617 142.4810028076172,21.062999725341797z"></path>
      </g>
      <g opacity="1" transform="matrix(1,0,0,1,0,0)" style="mix-blend-mode: overlay;">
        <path fill="rgb(255,255,255)" fill-opacity="0.52" d=" M160.1280059814453,-42.178001403808594 C158.4929962158203,-42.63399887084961 156.85000610351562,-42.95899963378906 155.21499633789062,-43.15700149536133 C154.35899353027344,-40.08700180053711 153.89199829101562,-36.85499954223633 153.89199829101562,-33.51300048828125 C153.89199829101562,-16.423999786376953 165.8560028076172,-2.140000104904175 181.86199951171875,1.4479999542236328 C182.26600646972656,0.4169999957084656 182.62100219726562,-0.6449999809265137 182.9250030517578,-1.7350000143051147 C187.79800415039062,-19.198999404907227 177.5919952392578,-37.30500030517578 160.1280059814453,-42.178001403808594z"></path>
      </g>
      <g opacity="1" transform="matrix(1,0,0,1,0,0)">
        <path stroke-linecap="butt" stroke-linejoin="miter" fill-opacity="0" stroke-miterlimit="10" stroke="rgba(43, 128, 246, 1)" stroke-opacity="1" stroke-width="2" d=" M118.58899688720703,-13.258999824523926 C105.85299682617188,-18.22100067138672 97.93099975585938,-22.709999084472656 98.59700012207031,-25.094999313354492 C99.7040023803711,-29.062999725341797 124.1510009765625,-25.70800018310547 153.20199584960938,-17.601999282836914 C182.2530059814453,-9.496000289916992 204.906005859375,0.29100000858306885 203.7989959716797,4.258999824523926 C203.13600158691406,6.63700008392334 194.09100341796875,6.386000156402588 180.697998046875,4.058000087738037"></path>
      </g>
    </g>
    <g transform="matrix(13.119994163513184,-0.01184545736759901,0.01184545736759901,13.119994163513184,-1021.7862548828125,1115.4967041015625)" opacity="1" style="display: block;">
      <g opacity="1" transform="matrix(1,0,0,1,0,0)">
        <path fill="rgba(123, 172, 251, 1)" fill-opacity="1" d=" M123.44400024414062,-55.04600143432617 C123.44400024414062,-55.04600143432617 125.552001953125,-50.77399826049805 125.552001953125,-50.77399826049805 C125.552001953125,-50.77399826049805 130.26600646972656,-50.0890007019043 130.26600646972656,-50.0890007019043 C130.26600646972656,-50.0890007019043 126.8550033569336,-46.763999938964844 126.8550033569336,-46.763999938964844 C126.8550033569336,-46.763999938964844 127.66000366210938,-42.06800079345703 127.66000366210938,-42.06800079345703 C127.66000366210938,-42.06800079345703 123.44400024414062,-44.28499984741211 123.44400024414062,-44.28499984741211 C123.44400024414062,-44.28499984741211 119.22699737548828,-42.06800079345703 119.22699737548828,-42.06800079345703 C119.22699737548828,-42.06800079345703 120.03299713134766,-46.763999938964844 120.03299713134766,-46.763999938964844 C120.03299713134766,-46.763999938964844 116.62200164794922,-50.0890007019043 116.62200164794922,-50.0890007019043 C116.62200164794922,-50.0890007019043 121.33599853515625,-50.77399826049805 121.33599853515625,-50.77399826049805 C121.33599853515625,-50.77399826049805 123.44400024414062,-55.04600143432617 123.44400024414062,-55.04600143432617z"></path>
      </g>
    </g>
    <g transform="matrix(13.119994163513184,-0.01184545736759901,0.01184545736759901,13.119994163513184,-1024.681396484375,1104.2869873046875)" opacity="1" style="display: block;">
      <g opacity="1" transform="matrix(1,0,0,1,0,0)">
        <path fill="rgba(43, 121, 246, 1)" fill-opacity="1" d=" M107.09500122070312,5.823999881744385 C107.09500122070312,5.823999881744385 110.03900146484375,11.788000106811523 110.03900146484375,11.788000106811523 C110.03900146484375,11.788000106811523 116.62100219726562,12.744999885559082 116.62100219726562,12.744999885559082 C116.62100219726562,12.744999885559082 111.85800170898438,17.38800048828125 111.85800170898438,17.38800048828125 C111.85800170898438,17.38800048828125 112.98300170898438,23.944000244140625 112.98300170898438,23.944000244140625 C112.98300170898438,23.944000244140625 107.09500122070312,20.849000930786133 107.09500122070312,20.849000930786133 C107.09500122070312,20.849000930786133 101.20700073242188,23.944000244140625 101.20700073242188,23.944000244140625 C101.20700073242188,23.944000244140625 102.33200073242188,17.38800048828125 102.33200073242188,17.38800048828125 C102.33200073242188,17.38800048828125 97.56800079345703,12.744999885559082 97.56800079345703,12.744999885559082 C97.56800079345703,12.744999885559082 104.1510009765625,11.788000106811523 104.1510009765625,11.788000106811523 C104.1510009765625,11.788000106811523 107.09500122070312,5.823999881744385 107.09500122070312,5.823999881744385z"></path>
      </g>
    </g>
  </g>
</svg>